<svg width="40" height="41" viewBox="0 0 40 41" fill="none" xmlns="http://www.w3.org/2000/svg">
<rect y="0.5" width="40" height="40" rx="8" fill="#E6FFFA"/>
<path d="M18 14.5V13.5H22V14.5H24V13.5C23.9995 12.9697 23.7886 12.4613 23.4136 12.0864C23.0387 11.7114 22.5303 11.5005 22 11.5H18C17.4697 11.5005 16.9613 11.7114 16.5864 12.0864C16.2114 12.4613 16.0005 12.9697 16 13.5V14.5H18Z" fill="#13DEB9"/>
<path d="M17 23.5C16.7348 23.5 16.4804 23.3946 16.2929 23.2071C16.1054 23.0196 16 22.7652 16 22.5V20.5C16 20.2348 16.1054 19.9804 16.2929 19.7929C16.4804 19.6054 16.7348 19.5 17 19.5C17.2652 19.5 17.5196 19.6054 17.7071 19.7929C17.8946 19.9804 18 20.2348 18 20.5V22.5C18 22.7652 17.8946 23.0196 17.7071 23.2071C17.5196 23.3946 17.2652 23.5 17 23.5ZM23 23.5C22.7348 23.5 22.4804 23.3946 22.2929 23.2071C22.1054 23.0196 22 22.7652 22 22.5V20.5C22 20.2348 22.1054 19.9804 22.2929 19.7929C22.4804 19.6054 22.7348 19.5 23 19.5C23.2652 19.5 23.5196 19.6054 23.7071 19.7929C23.8946 19.9804 24 20.2348 24 20.5V22.5C24 22.7652 23.8946 23.0196 23.7071 23.2071C23.5196 23.3946 23.2652 23.5 23 23.5Z" fill="#B3FFEE"/>
<path d="M28 14.5H12C11.4696 14.5 10.9609 14.7107 10.5858 15.0858C10.2107 15.4609 10 15.9696 10 16.5V19.5C10 20.0304 10.2107 20.5391 10.5858 20.9142C10.9609 21.2893 11.4696 21.5 12 21.5H16V20.5C16 20.2348 16.1054 19.9804 16.2929 19.7929C16.4804 19.6054 16.7348 19.5 17 19.5C17.2652 19.5 17.5196 19.6054 17.7071 19.7929C17.8946 19.9804 18 20.2348 18 20.5V21.5H22V20.5C22 20.2348 22.1054 19.9804 22.2929 19.7929C22.4804 19.6054 22.7348 19.5 23 19.5C23.2652 19.5 23.5196 19.6054 23.7071 19.7929C23.8946 19.9804 24 20.2348 24 20.5V21.5H28C28.5304 21.5 29.0391 21.2893 29.4142 20.9142C29.7893 20.5391 30 20.0304 30 19.5V16.5C30 15.9696 29.7893 15.4609 29.4142 15.0858C29.0391 14.7107 28.5304 14.5 28 14.5Z" fill="#54EBC9"/>
<path d="M28 21.5H24V22.5C24 22.7652 23.8946 23.0196 23.7071 23.2071C23.5196 23.3946 23.2652 23.5 23 23.5C22.7348 23.5 22.4804 23.3946 22.2929 23.2071C22.1054 23.0196 22 22.7652 22 22.5V21.5H18V22.5C18 22.7652 17.8946 23.0196 17.7071 23.2071C17.5196 23.3946 17.2652 23.5 17 23.5C16.7348 23.5 16.4804 23.3946 16.2929 23.2071C16.1054 23.0196 16 22.7652 16 22.5V21.5H12C11.4696 21.5 10.9609 21.2893 10.5858 20.9142C10.2107 20.5391 10 20.0304 10 19.5V27.5C10 28.0304 10.2107 28.5391 10.5858 28.9142C10.9609 29.2893 11.4696 29.5 12 29.5H28C28.5304 29.5 29.0391 29.2893 29.4142 28.9142C29.7893 28.5391 30 28.0304 30 27.5V19.5C30 20.0304 29.7893 20.5391 29.4142 20.9142C29.0391 21.2893 28.5304 21.5 28 21.5Z" fill="#13DEB9"/>
</svg>
