<svg width="16" height="20" viewBox="0 0 16 20" fill="none" xmlns="http://www.w3.org/2000/svg">
<path d="M0.25 16.875V15.375H2.25V8.12499C2.25 6.75832 2.671 5.55399 3.513 4.51199C4.35433 3.47065 5.43333 2.79999 6.75 2.49999V1.79999C6.75 1.44999 6.871 1.15399 7.113 0.911988C7.35433 0.670654 7.65 0.549988 8 0.549988C8.35 0.549988 8.64567 0.670654 8.887 0.911988C9.129 1.15399 9.25 1.44999 9.25 1.79999V2.49999C10.5667 2.79999 11.646 3.47065 12.488 4.51199C13.3293 5.55399 13.75 6.75832 13.75 8.12499V15.375H15.75V16.875H0.25ZM8 19.8C7.5 19.8 7.075 19.625 6.725 19.275C6.375 18.925 6.2 18.5 6.2 18H9.8C9.8 18.5 9.625 18.925 9.275 19.275C8.925 19.625 8.5 19.8 8 19.8ZM3.75 15.375H12.25V8.12499C12.25 6.94165 11.8373 5.93732 11.012 5.11199C10.1873 4.28732 9.18333 3.87499 8 3.87499C6.81667 3.87499 5.81267 4.28732 4.988 5.11199C4.16267 5.93732 3.75 6.94165 3.75 8.12499V15.375Z" fill="#5A6A85"/>
</svg>
