<svg width="40" height="41" viewBox="0 0 40 41" fill="none" xmlns="http://www.w3.org/2000/svg">
<rect y="0.5" width="40" height="40" rx="8" fill="#EBF3FE"/>
<path d="M28.65 17.5H10.65C10.3848 17.5 10.1304 17.3946 9.94289 17.2071C9.75535 17.0196 9.64999 16.7652 9.64999 16.5V13.5C9.64999 13.07 9.92599 12.688 10.334 12.552L19.334 9.55199C19.539 9.48299 19.761 9.48299 19.967 9.55199L28.967 12.552C29.1659 12.6183 29.339 12.7456 29.4615 12.9157C29.5841 13.0859 29.6501 13.2903 29.65 13.5V16.5C29.65 16.7652 29.5446 17.0196 29.3571 17.2071C29.1696 17.3946 28.9152 17.5 28.65 17.5ZM28.65 30.5H10.65C10.3848 30.5 10.1304 30.3946 9.94289 30.2071C9.75535 30.0196 9.64999 29.7652 9.64999 29.5V27.5C9.65079 26.7046 9.96711 25.942 10.5296 25.3796C11.092 24.8171 11.8546 24.5008 12.65 24.5H26.65C27.4454 24.5008 28.208 24.8171 28.7704 25.3796C29.3329 25.942 29.6492 26.7046 29.65 27.5V29.5C29.65 29.7652 29.5446 30.0196 29.3571 30.2071C29.1696 30.3946 28.9152 30.5 28.65 30.5Z" fill="#539BFF"/>
<path d="M12 17.5V24.576C12.21 24.529 12.426 24.5 12.65 24.5H26.65C26.77 24.5 26.884 24.522 27 24.536V17.5H12Z" fill="#D0E4FF"/>
<path d="M16 24.5V17.5H12V24.576C12.21 24.529 12.426 24.5 12.65 24.5H16ZM23 17.5V24.5H26.65C26.77 24.5 26.884 24.522 27 24.536V17.5H23Z" fill="#9FC7FF"/>
</svg>
