<svg width="16" height="16" viewBox="0 0 16 16" fill="none" xmlns="http://www.w3.org/2000/svg">
<path d="M2 15.625C1.55 15.625 1.16667 15.4667 0.85 15.15C0.533333 14.8333 0.375 14.45 0.375 14C0.375 13.55 0.533333 13.1667 0.85 12.85C1.16667 12.5333 1.55 12.375 2 12.375C2.45 12.375 2.83333 12.5333 3.15 12.85C3.46667 13.1667 3.625 13.55 3.625 14C3.625 14.45 3.46667 14.8333 3.15 15.15C2.83333 15.4667 2.45 15.625 2 15.625ZM8 15.625C7.55 15.625 7.16667 15.4667 6.85 15.15C6.53333 14.8333 6.375 14.45 6.375 14C6.375 13.55 6.53333 13.1667 6.85 12.85C7.16667 12.5333 7.55 12.375 8 12.375C8.45 12.375 8.83333 12.5333 9.15 12.85C9.46667 13.1667 9.625 13.55 9.625 14C9.625 14.45 9.46667 14.8333 9.15 15.15C8.83333 15.4667 8.45 15.625 8 15.625ZM14 15.625C13.55 15.625 13.1667 15.4667 12.85 15.15C12.5333 14.8333 12.375 14.45 12.375 14C12.375 13.55 12.5333 13.1667 12.85 12.85C13.1667 12.5333 13.55 12.375 14 12.375C14.45 12.375 14.8333 12.5333 15.15 12.85C15.4667 13.1667 15.625 13.55 15.625 14C15.625 14.45 15.4667 14.8333 15.15 15.15C14.8333 15.4667 14.45 15.625 14 15.625ZM2 9.625C1.55 9.625 1.16667 9.46667 0.85 9.15C0.533333 8.83333 0.375 8.45 0.375 8C0.375 7.55 0.533333 7.16667 0.85 6.85C1.16667 6.53333 1.55 6.375 2 6.375C2.45 6.375 2.83333 6.53333 3.15 6.85C3.46667 7.16667 3.625 7.55 3.625 8C3.625 8.45 3.46667 8.83333 3.15 9.15C2.83333 9.46667 2.45 9.625 2 9.625ZM8 9.625C7.55 9.625 7.16667 9.46667 6.85 9.15C6.53333 8.83333 6.375 8.45 6.375 8C6.375 7.55 6.53333 7.16667 6.85 6.85C7.16667 6.53333 7.55 6.375 8 6.375C8.45 6.375 8.83333 6.53333 9.15 6.85C9.46667 7.16667 9.625 7.55 9.625 8C9.625 8.45 9.46667 8.83333 9.15 9.15C8.83333 9.46667 8.45 9.625 8 9.625ZM14 9.625C13.55 9.625 13.1667 9.46667 12.85 9.15C12.5333 8.83333 12.375 8.45 12.375 8C12.375 7.55 12.5333 7.16667 12.85 6.85C13.1667 6.53333 13.55 6.375 14 6.375C14.45 6.375 14.8333 6.53333 15.15 6.85C15.4667 7.16667 15.625 7.55 15.625 8C15.625 8.45 15.4667 8.83333 15.15 9.15C14.8333 9.46667 14.45 9.625 14 9.625ZM2 3.625C1.55 3.625 1.16667 3.46667 0.85 3.15C0.533333 2.83333 0.375 2.45 0.375 2C0.375 1.55 0.533333 1.16667 0.85 0.85C1.16667 0.533333 1.55 0.375 2 0.375C2.45 0.375 2.83333 0.533333 3.15 0.85C3.46667 1.16667 3.625 1.55 3.625 2C3.625 2.45 3.46667 2.83333 3.15 3.15C2.83333 3.46667 2.45 3.625 2 3.625ZM8 3.625C7.55 3.625 7.16667 3.46667 6.85 3.15C6.53333 2.83333 6.375 2.45 6.375 2C6.375 1.55 6.53333 1.16667 6.85 0.85C7.16667 0.533333 7.55 0.375 8 0.375C8.45 0.375 8.83333 0.533333 9.15 0.85C9.46667 1.16667 9.625 1.55 9.625 2C9.625 2.45 9.46667 2.83333 9.15 3.15C8.83333 3.46667 8.45 3.625 8 3.625ZM14 3.625C13.55 3.625 13.1667 3.46667 12.85 3.15C12.5333 2.83333 12.375 2.45 12.375 2C12.375 1.55 12.5333 1.16667 12.85 0.85C13.1667 0.533333 13.55 0.375 14 0.375C14.45 0.375 14.8333 0.533333 15.15 0.85C15.4667 1.16667 15.625 1.55 15.625 2C15.625 2.45 15.4667 2.83333 15.15 3.15C14.8333 3.46667 14.45 3.625 14 3.625Z" fill="#5A6A85"/>
</svg>
