<svg width="22" height="20" viewBox="0 0 22 20" fill="none" xmlns="http://www.w3.org/2000/svg">
<path d="M10.925 19.225L15.125 8.15002H17.05L21.25 19.225H19.325L18.35 16.4H13.875L12.875 19.225H10.925ZM14.425 14.8H17.75L16.125 10.225H16.05L14.425 14.8ZM3.625 16.45L2.325 15.15L7 10.5C6.41667 9.85003 5.90833 9.17902 5.475 8.48702C5.04167 7.79569 4.65833 7.06669 4.325 6.30002H6.25C6.53333 6.86669 6.83333 7.37069 7.15 7.81202C7.46667 8.25402 7.84167 8.71669 8.275 9.20002C8.95833 8.46669 9.525 7.71269 9.975 6.93802C10.425 6.16269 10.8 5.33336 11.1 4.45002H0.875V2.62502H7.325V0.775024H9.175V2.62502H15.625V4.45002H12.95C12.6167 5.55002 12.175 6.61236 11.625 7.63702C11.075 8.66236 10.3917 9.63336 9.575 10.55L11.8 12.8L11.1 14.7L8.25 11.85L3.625 16.45Z" fill="#5A6A85"/>
</svg>
