<svg width="174" height="26" viewBox="0 0 174 26" fill="none" xmlns="http://www.w3.org/2000/svg">
<path d="M46.728 23V5.12H49.848L56.544 14.216H55.056L61.608 5.12H64.728V23H61.44V8.84L62.712 9.152L55.92 18.2H55.536L48.912 9.152L49.992 8.84V23H46.728ZM74.2699 23.288C72.9899 23.288 71.8219 22.992 70.7659 22.4C69.7259 21.808 68.8939 21 68.2699 19.976C67.6619 18.952 67.3579 17.784 67.3579 16.472C67.3579 15.16 67.6619 13.992 68.2699 12.968C68.8939 11.944 69.7259 11.136 70.7659 10.544C71.8059 9.952 72.9739 9.656 74.2699 9.656C75.5499 9.656 76.7099 9.952 77.7499 10.544C78.7899 11.136 79.6139 11.944 80.2219 12.968C80.8459 13.976 81.1579 15.144 81.1579 16.472C81.1579 17.784 80.8459 18.952 80.2219 19.976C79.5979 21 78.7659 21.808 77.7259 22.4C76.6859 22.992 75.5339 23.288 74.2699 23.288ZM74.2699 20.408C74.9739 20.408 75.5899 20.24 76.1179 19.904C76.6619 19.568 77.0859 19.104 77.3899 18.512C77.7099 17.904 77.8699 17.224 77.8699 16.472C77.8699 15.704 77.7099 15.032 77.3899 14.456C77.0859 13.864 76.6619 13.4 76.1179 13.064C75.5899 12.712 74.9739 12.536 74.2699 12.536C73.5499 12.536 72.9179 12.712 72.3739 13.064C71.8299 13.4 71.3979 13.864 71.0779 14.456C70.7739 15.032 70.6219 15.704 70.6219 16.472C70.6219 17.224 70.7739 17.904 71.0779 18.512C71.3979 19.104 71.8299 19.568 72.3739 19.904C72.9179 20.24 73.5499 20.408 74.2699 20.408ZM89.6141 23.288C88.3501 23.288 87.2221 22.992 86.2301 22.4C85.2381 21.792 84.4541 20.968 83.8781 19.928C83.3021 18.888 83.0141 17.736 83.0141 16.472C83.0141 15.192 83.3021 14.04 83.8781 13.016C84.4541 11.992 85.2381 11.176 86.2301 10.568C87.2381 9.96 88.3581 9.656 89.5901 9.656C90.5821 9.656 91.4621 9.856 92.2301 10.256C93.0141 10.64 93.6301 11.184 94.0781 11.888L93.5981 12.536V4.832H96.7421V23H93.7661V20.48L94.1021 21.104C93.6541 21.808 93.0301 22.352 92.2301 22.736C91.4301 23.104 90.5581 23.288 89.6141 23.288ZM89.9501 20.408C90.6701 20.408 91.3021 20.24 91.8461 19.904C92.3901 19.568 92.8141 19.104 93.1181 18.512C93.4381 17.92 93.5981 17.24 93.5981 16.472C93.5981 15.72 93.4381 15.048 93.1181 14.456C92.8141 13.848 92.3901 13.376 91.8461 13.04C91.3021 12.704 90.6701 12.536 89.9501 12.536C89.2461 12.536 88.6141 12.712 88.0541 13.064C87.4941 13.4 87.0541 13.864 86.7341 14.456C86.4301 15.032 86.2781 15.704 86.2781 16.472C86.2781 17.24 86.4301 17.92 86.7341 18.512C87.0541 19.104 87.4941 19.568 88.0541 19.904C88.6141 20.24 89.2461 20.408 89.9501 20.408ZM105.859 23.288C104.515 23.288 103.339 22.984 102.331 22.376C101.323 21.768 100.539 20.944 99.9791 19.904C99.4191 18.864 99.1391 17.712 99.1391 16.448C99.1391 15.136 99.4191 13.976 99.9791 12.968C100.555 11.944 101.331 11.136 102.307 10.544C103.299 9.952 104.403 9.656 105.619 9.656C106.643 9.656 107.539 9.824 108.307 10.16C109.091 10.496 109.755 10.96 110.299 11.552C110.843 12.144 111.259 12.824 111.547 13.592C111.835 14.344 111.979 15.16 111.979 16.04C111.979 16.264 111.963 16.496 111.931 16.736C111.915 16.976 111.875 17.184 111.811 17.36H101.731V14.96H110.035L108.547 16.088C108.691 15.352 108.651 14.696 108.427 14.12C108.219 13.544 107.867 13.088 107.371 12.752C106.891 12.416 106.307 12.248 105.619 12.248C104.963 12.248 104.379 12.416 103.867 12.752C103.355 13.072 102.963 13.552 102.691 14.192C102.435 14.816 102.339 15.576 102.403 16.472C102.339 17.272 102.443 17.984 102.715 18.608C103.003 19.216 103.419 19.688 103.963 20.024C104.523 20.36 105.163 20.528 105.883 20.528C106.603 20.528 107.211 20.376 107.707 20.072C108.219 19.768 108.619 19.36 108.907 18.848L111.451 20.096C111.195 20.72 110.795 21.272 110.251 21.752C109.707 22.232 109.059 22.608 108.307 22.88C107.571 23.152 106.755 23.288 105.859 23.288ZM114.362 23V9.944H117.314V12.848L117.074 12.416C117.378 11.44 117.85 10.76 118.49 10.376C119.146 9.992 119.93 9.8 120.842 9.8H121.61V12.584H120.482C119.586 12.584 118.866 12.864 118.322 13.424C117.778 13.968 117.506 14.736 117.506 15.728V23H114.362ZM123.339 23V9.944H126.291V12.512L126.051 12.056C126.355 11.272 126.851 10.68 127.539 10.28C128.243 9.864 129.059 9.656 129.987 9.656C130.947 9.656 131.795 9.864 132.531 10.28C133.283 10.696 133.867 11.28 134.283 12.032C134.699 12.768 134.907 13.624 134.907 14.6V23H131.763V15.344C131.763 14.768 131.651 14.272 131.427 13.856C131.203 13.44 130.891 13.12 130.491 12.896C130.107 12.656 129.651 12.536 129.123 12.536C128.611 12.536 128.155 12.656 127.755 12.896C127.355 13.12 127.043 13.44 126.819 13.856C126.595 14.272 126.483 14.768 126.483 15.344V23H123.339ZM137.566 23V9.944H140.71V23H137.566ZM137.566 8.48V5.12H140.71V8.48H137.566ZM142.484 23V20.456L150.068 11.672L150.548 12.752H142.82V9.944H153.332V12.512L145.892 21.296L145.412 20.216H153.38V23H142.484ZM161.359 23.288C160.015 23.288 158.839 22.984 157.831 22.376C156.823 21.768 156.039 20.944 155.479 19.904C154.919 18.864 154.639 17.712 154.639 16.448C154.639 15.136 154.919 13.976 155.479 12.968C156.055 11.944 156.831 11.136 157.807 10.544C158.799 9.952 159.903 9.656 161.119 9.656C162.143 9.656 163.039 9.824 163.807 10.16C164.591 10.496 165.255 10.96 165.799 11.552C166.343 12.144 166.759 12.824 167.047 13.592C167.335 14.344 167.479 15.16 167.479 16.04C167.479 16.264 167.463 16.496 167.431 16.736C167.415 16.976 167.375 17.184 167.311 17.36H157.231V14.96H165.535L164.047 16.088C164.191 15.352 164.151 14.696 163.927 14.12C163.719 13.544 163.367 13.088 162.871 12.752C162.391 12.416 161.807 12.248 161.119 12.248C160.463 12.248 159.879 12.416 159.367 12.752C158.855 13.072 158.463 13.552 158.191 14.192C157.935 14.816 157.839 15.576 157.903 16.472C157.839 17.272 157.943 17.984 158.215 18.608C158.503 19.216 158.919 19.688 159.463 20.024C160.023 20.36 160.663 20.528 161.383 20.528C162.103 20.528 162.711 20.376 163.207 20.072C163.719 19.768 164.119 19.36 164.407 18.848L166.951 20.096C166.695 20.72 166.295 21.272 165.751 21.752C165.207 22.232 164.559 22.608 163.807 22.88C163.071 23.152 162.255 23.288 161.359 23.288Z" fill="#2A3547"/>
<path d="M20.8382 26C23.5996 26 25.8855 23.7425 25.3744 21.0288C25.054 19.3274 24.5691 17.6594 23.9247 16.0502C22.6615 12.8958 20.8099 10.0295 18.4757 7.61522C16.1415 5.2009 13.3705 3.28575 10.3207 1.97913C8.81507 1.33406 7.25605 0.843538 5.66612 0.512196C2.96278 -0.0511822 0.701233 2.23858 0.701233 5V21C0.701233 23.7614 2.93981 26 5.70123 26H20.8382Z" fill="#5D87FF"/>
<g style="mix-blend-mode:multiply">
<path d="M14.4025 26C11.6411 26 9.35518 23.7425 9.86626 21.0288C10.1867 19.3274 10.6715 17.6594 11.3159 16.0502C12.5792 12.8958 14.4308 10.0295 16.7649 7.61522C19.0991 5.2009 21.8702 3.28575 24.9199 1.97913C26.4256 1.33406 27.9846 0.843538 29.5745 0.512196C32.2779 -0.0511822 34.5394 2.23858 34.5394 5V21C34.5394 23.7614 32.3009 26 29.5394 26H14.4025Z" fill="#49BEFF"/>
</g>
</svg>
