<svg width="40" height="41" viewBox="0 0 40 41" fill="none" xmlns="http://www.w3.org/2000/svg">
<rect y="0.5" width="40" height="40" rx="8" fill="white" fill-opacity="0.1"/>
<path d="M9.99988 30.275L11.7749 24.25C11.4582 23.5833 11.2125 22.896 11.0379 22.188C10.8625 21.4793 10.7749 20.75 10.7749 20C10.7749 18.6833 11.0249 17.4457 11.5249 16.287C12.0249 15.129 12.6999 14.125 13.5499 13.275C14.3999 12.425 15.4042 11.75 16.5629 11.25C17.7209 10.75 18.9582 10.5 20.2749 10.5C21.5915 10.5 22.8292 10.75 23.9879 11.25C25.1459 11.75 26.1499 12.425 26.9999 13.275C27.8499 14.125 28.5249 15.129 29.0249 16.287C29.5249 17.4457 29.7749 18.6833 29.7749 20C29.7749 21.3167 29.5249 22.554 29.0249 23.712C28.5249 24.8707 27.8499 25.875 26.9999 26.725C26.1499 27.575 25.1459 28.25 23.9879 28.75C22.8292 29.25 21.5915 29.5 20.2749 29.5C19.5249 29.5 18.7955 29.4127 18.0869 29.238C17.3789 29.0627 16.6915 28.8167 16.0249 28.5L9.99988 30.275ZM12.2249 28.05L15.4249 27.1C15.6749 27.0333 15.9125 27.004 16.1379 27.012C16.3625 27.0207 16.5915 27.0833 16.8249 27.2C17.3582 27.4667 17.9165 27.6667 18.4999 27.8C19.0832 27.9333 19.6749 28 20.2749 28C22.5082 28 24.3999 27.225 25.9499 25.675C27.4999 24.125 28.2749 22.2333 28.2749 20C28.2749 17.7667 27.4999 15.875 25.9499 14.325C24.3999 12.775 22.5082 12 20.2749 12C18.0415 12 16.1499 12.775 14.5999 14.325C13.0499 15.875 12.2749 17.7667 12.2749 20C12.2749 20.6 12.3415 21.1917 12.4749 21.775C12.6082 22.3583 12.8082 22.9167 13.0749 23.45C13.1915 23.6667 13.2542 23.8957 13.2629 24.137C13.2709 24.379 13.2415 24.6167 13.1749 24.85L12.2249 28.05Z" fill="white"/>
</svg>
