<svg width="40" height="41" viewBox="0 0 40 41" fill="none" xmlns="http://www.w3.org/2000/svg">
<rect y="0.5" width="40" height="40" rx="8" fill="#FBF2EF"/>
<path d="M20 20.5V10.5C25.523 10.5 30 14.977 30 20.5H20Z" fill="#FFD4C9"/>
<path d="M20 20.5L25 29.16C26.5195 28.2816 27.7813 27.0191 28.6589 25.4991C29.5364 23.9791 29.9989 22.2551 30 20.5H20Z" fill="#FFAA94"/>
<path d="M25 29.16L20 20.5V10.5C14.477 10.502 10.001 14.98 10.003 20.503C10.005 26.026 14.483 30.502 20.007 30.5C21.7598 30.4993 23.4817 30.0379 25 29.162L25.003 29.157L24.999 29.16H25Z" fill="#FA896B"/>
</svg>
