<svg width="40" height="41" viewBox="0 0 40 41" fill="none" xmlns="http://www.w3.org/2000/svg">
<rect y="0.5" width="40" height="40" rx="8" fill="#ECF2FF"/>
<path d="M16.8819 28.44C16.8048 28.9257 16.386 29.2833 15.8942 29.2833H12.0625C11.2158 29.2851 10.5279 28.6001 10.526 27.7534C10.5259 27.6679 10.5328 27.5825 10.5469 27.4981L13.1367 11.0918C13.284 10.1764 14.0728 9.50247 15 9.5H21.2139C23.7744 9.5 25.6221 10.1201 26.7061 11.3428C27.7527 12.5486 28.1547 14.1847 27.7861 15.7383C27.7647 15.873 27.7431 16.0088 27.7109 16.1563C26.8877 20.3741 24.0557 22.6133 19.5254 22.6133H17.8066L16.8819 28.44ZM12.5225 27.8116L12.5205 27.8184L12.5225 27.8116ZM15.1133 11.3966L15.1123 11.3986L15.1133 11.3966Z" fill="#B2B1FF"/>
<path d="M28.4365 15.6045C28.2704 15.4185 28.0878 15.2487 27.8915 15.0965C27.8696 15.3111 27.8366 15.5254 27.7861 15.7383C27.7647 15.873 27.7431 16.0088 27.7109 16.1562C26.8877 20.374 24.0557 22.6133 19.5254 22.6133H17.8066L16.8819 28.44C16.8048 28.9257 16.386 29.2833 15.8942 29.2833H14.7266L14.6445 29.8037C14.6326 29.8794 14.6265 29.9559 14.6265 30.0326C14.6262 30.8427 15.2827 31.4997 16.0928 31.5H19.3272C20.1928 31.5073 20.9353 30.8841 21.0782 30.0303L21.7188 25.999L21.7296 25.9444H22.0284C26.0606 25.9444 28.5792 23.9512 29.3135 20.1816C29.7679 18.6034 29.4421 16.9031 28.4365 15.6045Z" fill="#615DFF"/>
</svg>
