<svg width="18" height="18" viewBox="0 0 18 18" fill="none" xmlns="http://www.w3.org/2000/svg">
<path d="M16.55 17.575L10.25 11.3C9.74999 11.7167 9.17499 12.0417 8.52499 12.275C7.87499 12.5083 7.20833 12.625 6.52499 12.625C4.80833 12.625 3.35833 12.0333 2.17499 10.85C0.991661 9.66667 0.399994 8.21667 0.399994 6.5C0.399994 4.8 0.991661 3.354 2.17499 2.162C3.35833 0.970667 4.80833 0.375 6.52499 0.375C8.22499 0.375 9.66666 0.966667 10.85 2.15C12.0333 3.33333 12.625 4.78333 12.625 6.5C12.625 7.21667 12.5083 7.9 12.275 8.55C12.0417 9.2 11.725 9.76667 11.325 10.25L17.6 16.525L16.55 17.575ZM6.52499 11.125C7.80833 11.125 8.89599 10.675 9.78799 9.775C10.6793 8.875 11.125 7.78333 11.125 6.5C11.125 5.21667 10.6793 4.125 9.78799 3.225C8.89599 2.325 7.80833 1.875 6.52499 1.875C5.22499 1.875 4.12933 2.325 3.23799 3.225C2.34599 4.125 1.89999 5.21667 1.89999 6.5C1.89999 7.78333 2.34599 8.875 3.23799 9.775C4.12933 10.675 5.22499 11.125 6.52499 11.125Z" fill="#5A6A85"/>
</svg>
