<svg width="44" height="45" viewBox="0 0 44 45" fill="none" xmlns="http://www.w3.org/2000/svg">
<rect y="0.5" width="44" height="44" rx="8" fill="#ECF2FF"/>
<path d="M16 30.125C15.55 30.125 15.1667 29.9667 14.85 29.65C14.5333 29.3333 14.375 28.95 14.375 28.5C14.375 28.05 14.5333 27.6667 14.85 27.35C15.1667 27.0333 15.55 26.875 16 26.875C16.45 26.875 16.8333 27.0333 17.15 27.35C17.4667 27.6667 17.625 28.05 17.625 28.5C17.625 28.95 17.4667 29.3333 17.15 29.65C16.8333 29.9667 16.45 30.125 16 30.125ZM22 30.125C21.55 30.125 21.1667 29.9667 20.85 29.65C20.5333 29.3333 20.375 28.95 20.375 28.5C20.375 28.05 20.5333 27.6667 20.85 27.35C21.1667 27.0333 21.55 26.875 22 26.875C22.45 26.875 22.8333 27.0333 23.15 27.35C23.4667 27.6667 23.625 28.05 23.625 28.5C23.625 28.95 23.4667 29.3333 23.15 29.65C22.8333 29.9667 22.45 30.125 22 30.125ZM28 30.125C27.55 30.125 27.1667 29.9667 26.85 29.65C26.5333 29.3333 26.375 28.95 26.375 28.5C26.375 28.05 26.5333 27.6667 26.85 27.35C27.1667 27.0333 27.55 26.875 28 26.875C28.45 26.875 28.8333 27.0333 29.15 27.35C29.4667 27.6667 29.625 28.05 29.625 28.5C29.625 28.95 29.4667 29.3333 29.15 29.65C28.8333 29.9667 28.45 30.125 28 30.125ZM16 24.125C15.55 24.125 15.1667 23.9667 14.85 23.65C14.5333 23.3333 14.375 22.95 14.375 22.5C14.375 22.05 14.5333 21.6667 14.85 21.35C15.1667 21.0333 15.55 20.875 16 20.875C16.45 20.875 16.8333 21.0333 17.15 21.35C17.4667 21.6667 17.625 22.05 17.625 22.5C17.625 22.95 17.4667 23.3333 17.15 23.65C16.8333 23.9667 16.45 24.125 16 24.125ZM22 24.125C21.55 24.125 21.1667 23.9667 20.85 23.65C20.5333 23.3333 20.375 22.95 20.375 22.5C20.375 22.05 20.5333 21.6667 20.85 21.35C21.1667 21.0333 21.55 20.875 22 20.875C22.45 20.875 22.8333 21.0333 23.15 21.35C23.4667 21.6667 23.625 22.05 23.625 22.5C23.625 22.95 23.4667 23.3333 23.15 23.65C22.8333 23.9667 22.45 24.125 22 24.125ZM28 24.125C27.55 24.125 27.1667 23.9667 26.85 23.65C26.5333 23.3333 26.375 22.95 26.375 22.5C26.375 22.05 26.5333 21.6667 26.85 21.35C27.1667 21.0333 27.55 20.875 28 20.875C28.45 20.875 28.8333 21.0333 29.15 21.35C29.4667 21.6667 29.625 22.05 29.625 22.5C29.625 22.95 29.4667 23.3333 29.15 23.65C28.8333 23.9667 28.45 24.125 28 24.125ZM16 18.125C15.55 18.125 15.1667 17.9667 14.85 17.65C14.5333 17.3333 14.375 16.95 14.375 16.5C14.375 16.05 14.5333 15.6667 14.85 15.35C15.1667 15.0333 15.55 14.875 16 14.875C16.45 14.875 16.8333 15.0333 17.15 15.35C17.4667 15.6667 17.625 16.05 17.625 16.5C17.625 16.95 17.4667 17.3333 17.15 17.65C16.8333 17.9667 16.45 18.125 16 18.125ZM22 18.125C21.55 18.125 21.1667 17.9667 20.85 17.65C20.5333 17.3333 20.375 16.95 20.375 16.5C20.375 16.05 20.5333 15.6667 20.85 15.35C21.1667 15.0333 21.55 14.875 22 14.875C22.45 14.875 22.8333 15.0333 23.15 15.35C23.4667 15.6667 23.625 16.05 23.625 16.5C23.625 16.95 23.4667 17.3333 23.15 17.65C22.8333 17.9667 22.45 18.125 22 18.125ZM28 18.125C27.55 18.125 27.1667 17.9667 26.85 17.65C26.5333 17.3333 26.375 16.95 26.375 16.5C26.375 16.05 26.5333 15.6667 26.85 15.35C27.1667 15.0333 27.55 14.875 28 14.875C28.45 14.875 28.8333 15.0333 29.15 15.35C29.4667 15.6667 29.625 16.05 29.625 16.5C29.625 16.95 29.4667 17.3333 29.15 17.65C28.8333 17.9667 28.45 18.125 28 18.125Z" fill="#5D87FF"/>
</svg>
