<svg width="40" height="41" viewBox="0 0 40 41" fill="none" xmlns="http://www.w3.org/2000/svg">
<rect y="0.5" width="40" height="40" rx="8" fill="#FEF5E5"/>
<path d="M23.273 27.228C21.9423 27.2282 20.6415 26.8338 19.535 26.0947C18.4284 25.3556 17.5659 24.3049 17.0565 23.0756C16.5471 21.8463 16.4137 20.4936 16.6731 19.1884C16.9325 17.8833 17.5731 16.6844 18.5139 15.7433C19.4547 14.8022 20.6534 14.1613 21.9585 13.9015C23.2635 13.6417 24.6163 13.7747 25.8458 14.2838C27.0752 14.7928 28.1261 15.655 28.8656 16.7613C29.605 17.8676 29.9998 19.1683 30 20.499V20.5C29.9982 22.2836 29.2889 23.9937 28.0277 25.255C26.7666 26.5163 25.0566 27.2259 23.273 27.228Z" fill="#FFD995"/>
<path d="M16.727 27.228C15.3963 27.228 14.0955 26.8334 12.9891 26.0941C11.8827 25.3549 11.0204 24.3041 10.5111 23.0747C10.0019 21.8453 9.86867 20.4925 10.1283 19.1874C10.3879 17.8823 11.0287 16.6835 11.9696 15.7426C12.9105 14.8017 14.1093 14.1609 15.4144 13.9013C16.7195 13.6417 18.0723 13.7749 19.3017 14.2841C20.5311 14.7934 21.5818 15.6557 22.3211 16.7621C23.0604 17.8685 23.455 19.1693 23.455 20.5C23.4531 22.2838 22.7437 23.994 21.4824 25.2554C20.221 26.5167 18.5108 27.2262 16.727 27.228Z" fill="#FFAE1F"/>
</svg>
